# xmcd
#
# Track frame offsets:
#	150
#	19841
#	35760
#	56595
#	76458
#	101711
#	118580
#	149054
#	170688
#
# Disc length: 2636 seconds
# Revision: 0
# Processed by: cddbd v1.5.2PL0 Copyright (c) Steve Scherf et al.
# Submitted via: dBpowerAMP V12.0
#
DISCID=810a4a09
DTITLE=Isaiah B Brunt - It's Just The Way That It Goes
DYEAR=2014
DGENRE=Blues
TTITLE0=She's So Fine
TTITLE1=Let Your Heart Know
TTITLE2=The River Runs High
TTITLE3=Precious Stone
TTITLE4=With A Kiss (Piano Blues)
TTITLE5=Lovers Blues
TTITLE6=It's Just The Way That It Goes
TTITLE7=Never Give Up
TTITLE8=Which Way To Go
EXTD=
EXTT0=
EXTT1=
EXTT2=
EXTT3=
EXTT4=
EXTT5=
EXTT6=
EXTT7=
EXTT8=
PLAYORDER=
